<?xml version="1.0" encoding="utf-8"?>
<!-- Svg Vector Icons : http://www.onlinewebfonts.com/icon -->
<!DOCTYPE svg PUBLIC "-//W3C//DTD SVG 1.1//EN" "http://www.w3.org/Graphics/SVG/1.1/DTD/svg11.dtd">
<svg version="1.1" xmlns="http://www.w3.org/2000/svg" xmlns:xlink="http://www.w3.org/1999/xlink" x="0px" y="0px" viewBox="0 0 1000 1000" enable-background="new 0 0 1000 1000" xml:space="preserve">
<metadata> Svg Vector Icons : http://www.onlinewebfonts.com/icon </metadata>
<g><g><path d="M980.7,480.3L540.3,124.6l-24.4-20.3c-9.2-7.7-22.6-7.7-31.8,0L357,209.8v-44.6c0-13.8-11.2-24.9-24.9-24.9h-94.9c-13.8,0-24.9,11.2-24.9,24.9v164.4L19.2,487.1c-10.7,8.7-12.2,24.4-3.6,35c4.9,6,12.1,9.2,19.3,9.2c5.5,0,11.1-1.8,15.7-5.6l75.3-61.5v412.3c0,13.8,11.1,24.9,24.9,24.9H417c13.8,0,24.9-11.2,24.9-24.9V683.3h116.2v193.2c0,13.8,11.2,24.9,24.9,24.9h266.1c13.8,0,24.9-11.2,24.9-24.9V458.1l75.4,60.9c4.6,3.7,10.1,5.5,15.6,5.5c7.3,0,14.5-3.2,19.4-9.3C993.1,504.6,991.4,489,980.7,480.3z M262.1,190.1h45.1v59.4L262.1,286V190.1z M824.2,425.1v426.6H607.9V658.4c0-13.8-11.2-24.9-24.9-24.9H417c-13.8,0-24.9,11.2-24.9,24.9v193.2H175.8V425.1l96.8-80.4c0,0,226.7-185.7,228.1-188.2L824.2,425.1z"/></g><g></g><g></g><g></g><g></g><g></g><g></g><g></g><g></g><g></g><g></g><g></g><g></g><g></g><g></g><g></g></g>
</svg>